<?xml version="1.0" encoding="UTF-8" standalone="no"?>
<svg
   xmlns:dc="http://purl.org/dc/elements/1.1/"
   xmlns:cc="http://creativecommons.org/ns#"
   xmlns:rdf="http://www.w3.org/1999/02/22-rdf-syntax-ns#"
   xmlns:svg="http://www.w3.org/2000/svg"
   xmlns="http://www.w3.org/2000/svg"
   viewBox="0 0 1580.6267 499.54666"
   height="108"
   width="449"
   xml:space="preserve"
   id="svg2"
   version="1.1"><metadata
     id="metadata8"><rdf:RDF><cc:Work
         rdf:about=""><dc:format>image/svg+xml</dc:format><dc:type
           rdf:resource="http://purl.org/dc/dcmitype/StillImage" /></cc:Work></rdf:RDF></metadata><defs
     id="defs6" /><g
     transform="matrix(1.3333333,0,0,-1.3333333,0,499.54667)"
     id="g10"><g
       transform="scale(0.1)"
       id="g12"><path
         id="path14"
         style="fill:#4dbae9;fill-opacity:1;fill-rule:nonzero;stroke:none"
         d="m 2494.98,2507.15 -216.14,-347.16 c -6.69,-10.75 1.03,-24.65 13.69,-24.65 h 201 c 8.91,0 16.13,7.21 16.13,16.12 v 351.49 c 0,7.99 -10.46,10.98 -14.68,4.2 z m -323,302.06 h 791.09 c 11.29,0 20.45,-9.15 20.45,-20.44 V 1731.15 c 0,-11.29 -9.16,-20.45 -20.45,-20.45 H 2530.1 c -11.29,0 -20.44,9.16 -20.44,20.45 v 119.11 c 0,11.3 -9.15,20.45 -20.45,20.45 h -355.66 c -7.2,0 -13.87,-3.79 -17.56,-9.98 l -83.48,-140.05 c -3.69,-6.19 -10.36,-9.98 -17.57,-9.98 h -478.43 c -15.9,0 -25.71,17.35 -17.52,30.99 l 635.46,1057.61 c 3.7,6.16 10.35,9.91 17.53,9.91" /><path
         id="path16"
         style="fill:#4dbae9;fill-opacity:1;fill-rule:nonzero;stroke:none"
         d="m 3303.93,2809.21 h 433.17 c 13.36,0 23.13,-12.61 19.79,-25.55 l -172.98,-670.47 c -3.34,-12.94 6.44,-25.56 19.81,-25.56 h 424.08 c 13.39,0 23.16,-12.65 19.79,-25.61 l -87.79,-336.04 c -2.35,-9 -10.49,-15.28 -19.78,-15.28 h -908.65 c -13.35,0 -23.13,12.62 -19.79,25.56 l 272.55,1057.62 c 2.32,9.03 10.48,15.33 19.8,15.33" /><path
         id="path18"
         style="fill:#4dbae9;fill-opacity:1;fill-rule:nonzero;stroke:none"
         d="m 4319.32,2809.21 h 433.17 c 13.37,0 23.13,-12.61 19.79,-25.55 l -172.97,-670.47 c -3.34,-12.94 6.43,-25.56 19.8,-25.56 h 5737.79 c 13.4,0 23.1,-12.65 19.7,-25.61 l -87.7,-336.04 c -2.4,-9 -10.5,-15.28 -19.8,-15.28 H 4046.77 c -13.36,0 -23.13,12.62 -19.8,25.56 l 272.56,1057.62 c 2.32,9.03 10.47,15.33 19.79,15.33" /><path
         id="path20"
         style="fill:#ffffff;fill-opacity:1;fill-rule:nonzero;stroke:none"
         d="m 4960.72,2123.65 c 0,185.28 78.09,362.91 205.19,490 114.84,114.85 264.91,186.81 433.36,186.81 177.42,0 312.01,-87.08 380.35,-218.52 4.01,-7.73 0.55,-17.26 -7.34,-20.94 l -18.26,-8.52 c -7.45,-3.48 -16.2,-0.45 -20.17,6.74 -63.93,115.46 -173.69,193.78 -336.12,193.78 -153.12,0 -290.95,-65.85 -390.48,-166.9 -122.51,-120.98 -194.47,-287.88 -194.47,-460.93 0,-240.4 166.91,-385.87 381.29,-385.87 166.71,0 283.67,66.8 378.27,159.33 6.01,5.87 15.51,6.02 21.57,0.23 l 11.33,-10.82 c 6.29,-5.99 6.51,-16.06 0.33,-22.17 -97.02,-95.99 -228.87,-174.04 -416.09,-174.04 -232.75,0 -428.76,162.32 -428.76,431.82" /><path
         id="path22"
         style="fill:none;stroke:#ffffff;stroke-width:12.49909973;stroke-linecap:butt;stroke-linejoin:miter;stroke-miterlimit:10;stroke-dasharray:none;stroke-opacity:1"
         d="m 4960.72,2123.65 c 0,185.28 78.09,362.91 205.19,490 114.84,114.85 264.91,186.81 433.36,186.81 177.42,0 312.01,-87.08 380.35,-218.52 4.01,-7.73 0.55,-17.26 -7.34,-20.94 l -18.26,-8.52 c -7.45,-3.48 -16.2,-0.45 -20.17,6.74 -63.93,115.46 -173.69,193.78 -336.12,193.78 -153.12,0 -290.95,-65.85 -390.48,-166.9 -122.51,-120.98 -194.47,-287.88 -194.47,-460.93 0,-240.4 166.91,-385.87 381.29,-385.87 166.71,0 283.67,66.8 378.27,159.33 6.01,5.87 15.51,6.02 21.57,0.23 l 11.33,-10.82 c 6.29,-5.99 6.51,-16.06 0.33,-22.17 -97.02,-95.99 -228.87,-174.04 -416.09,-174.04 -232.75,0 -428.76,162.32 -428.76,431.82 z" /><path
         id="path24"
         style="fill:#ffffff;fill-opacity:1;fill-rule:nonzero;stroke:none"
         d="m 6530.19,2215.52 c 199.07,0 300.13,49.01 359.85,108.73 49,49 75.04,113.31 75.04,185.28 0,59.72 -19.91,110.26 -53.6,145.47 -52.06,52.06 -133.22,79.62 -249.6,79.62 h -329.59 c -7,0 -13.14,-4.7 -14.96,-11.47 l -131.02,-488.11 c -2.65,-9.85 4.77,-19.52 14.96,-19.52 z m 16.58,-55.84 c -2.66,5.15 -7.96,8.37 -13.75,8.37 h -21.2 -331.11 c -7.01,0 -13.15,-4.71 -14.97,-11.49 L 6049.38,1721.7 c -1.81,-6.78 -7.95,-11.5 -14.97,-11.5 h -19.96 c -10.18,0 -17.61,9.68 -14.96,19.52 l 279.55,1040.9 c 1.83,6.77 7.96,11.48 14.97,11.48 h 370.94 c 128.62,0 223.55,-32.16 284.81,-91.88 45.95,-45.94 67.38,-105.65 67.38,-176.1 0,-70.43 -22.96,-153.13 -88.81,-218.97 -61.11,-61.1 -162.3,-107 -306.2,-121.94 -10.97,-1.14 -17.44,-12.82 -12.34,-22.6 l 217.89,-417.74 c 5.38,-10.32 -2.1,-22.67 -13.74,-22.67 h -24.73 c -5.78,0 -11.1,3.23 -13.75,8.37 l -228.69,441.11" /><path
         id="path26"
         style="fill:none;stroke:#ffffff;stroke-width:12.49909973;stroke-linecap:butt;stroke-linejoin:miter;stroke-miterlimit:10;stroke-dasharray:none;stroke-opacity:1"
         d="m 6530.19,2215.52 c 199.07,0 300.13,49.01 359.85,108.73 49,49 75.04,113.31 75.04,185.28 0,59.72 -19.91,110.26 -53.6,145.47 -52.06,52.06 -133.22,79.62 -249.6,79.62 h -329.59 c -7,0 -13.14,-4.7 -14.96,-11.47 l -131.02,-488.11 c -2.65,-9.85 4.77,-19.52 14.96,-19.52 z m 16.58,-55.84 c -2.66,5.15 -7.96,8.37 -13.75,8.37 h -21.2 -331.11 c -7.01,0 -13.15,-4.71 -14.97,-11.49 L 6049.38,1721.7 c -1.81,-6.78 -7.95,-11.5 -14.97,-11.5 h -19.96 c -10.18,0 -17.61,9.68 -14.96,19.52 l 279.55,1040.9 c 1.83,6.77 7.96,11.48 14.97,11.48 h 370.94 c 128.62,0 223.55,-32.16 284.81,-91.88 45.95,-45.94 67.38,-105.65 67.38,-176.1 0,-70.43 -22.96,-153.13 -88.81,-218.97 -61.11,-61.1 -162.3,-107 -306.2,-121.94 -10.97,-1.14 -17.44,-12.82 -12.34,-22.6 l 217.89,-417.74 c 5.38,-10.32 -2.1,-22.67 -13.74,-22.67 h -24.73 c -5.78,0 -11.1,3.23 -13.75,8.37 z" /><path
         id="path28"
         style="fill:#ffffff;fill-opacity:1;fill-rule:nonzero;stroke:none"
         d="m 8016.98,1900.08 c 113.31,113.31 182.23,272.56 182.23,436.42 0,234.29 -163.85,416.5 -408.86,416.5 -145.47,0 -275.62,-61.25 -373.62,-160.78 -114.85,-113.31 -183.75,-272.58 -183.75,-437.95 0,-232.75 165.37,-416.5 408.83,-416.5 147.01,0 275.64,62.78 375.17,162.31 z m 235.82,437.95 c 0,-176.1 -76.56,-347.59 -197.53,-468.57 -107.19,-107.19 -254.19,-177.63 -414.98,-177.63 -271.03,0 -459.38,203.66 -459.38,462.44 0,174.57 75.03,346.07 196,467.04 108.72,108.73 254.19,179.15 414.98,179.15 272.56,0 460.91,-203.65 460.91,-462.43" /><path
         id="path30"
         style="fill:none;stroke:#ffffff;stroke-width:12.49909973;stroke-linecap:butt;stroke-linejoin:miter;stroke-miterlimit:10;stroke-dasharray:none;stroke-opacity:1"
         d="m 8016.98,1900.08 c 113.31,113.31 182.23,272.56 182.23,436.42 0,234.29 -163.85,416.5 -408.86,416.5 -145.47,0 -275.62,-61.25 -373.62,-160.78 -114.85,-113.31 -183.75,-272.58 -183.75,-437.95 0,-232.75 165.37,-416.5 408.83,-416.5 147.01,0 275.64,62.78 375.17,162.31 z m 235.82,437.95 c 0,-176.1 -76.56,-347.59 -197.53,-468.57 -107.19,-107.19 -254.19,-177.63 -414.98,-177.63 -271.03,0 -459.38,203.66 -459.38,462.44 0,174.57 75.03,346.07 196,467.04 108.72,108.73 254.19,179.15 414.98,179.15 272.56,0 460.91,-203.65 460.91,-462.43 z" /><path
         id="path32"
         style="fill:#ffffff;fill-opacity:1;fill-rule:nonzero;stroke:none"
         d="m 8351.35,1906.42 14.95,10.92 c 6.7,4.9 15.96,3.54 21.22,-2.89 90.27,-110.58 222.99,-172.08 384.31,-172.08 205.2,0 327.69,122.49 327.69,251.12 0,125.56 -102.59,179.15 -264.9,241.95 -174.57,67.37 -294.01,128.62 -294.01,271.02 0,65.86 26.03,130.17 78.09,182.23 65.85,65.84 166.91,108.72 298.61,108.72 148.09,0 272.31,-57.56 356.53,-145.8 6.1,-6.39 5.34,-16.68 -1.4,-22.4 l -16.09,-13.61 c -6.35,-5.37 -15.68,-4.66 -21.38,1.39 -79.1,83.68 -190.13,132.95 -322.27,132.95 -202.13,0 -320.03,-117.9 -320.03,-238.88 0,-117.91 113.31,-171.5 266.44,-229.69 177.64,-67.38 292.48,-131.69 292.48,-283.29 0,-68.9 -27.56,-137.81 -82.69,-192.94 -67.38,-67.37 -168.44,-110.24 -303.2,-110.24 -174.46,0 -324.67,72.8 -417.52,189.49 -5.43,6.83 -3.88,16.89 3.17,22.03" /><path
         id="path34"
         style="fill:none;stroke:#ffffff;stroke-width:12.49909973;stroke-linecap:butt;stroke-linejoin:miter;stroke-miterlimit:10;stroke-dasharray:none;stroke-opacity:1"
         d="m 8351.35,1906.42 14.95,10.92 c 6.7,4.9 15.96,3.54 21.22,-2.89 90.27,-110.58 222.99,-172.08 384.31,-172.08 205.2,0 327.69,122.49 327.69,251.12 0,125.56 -102.59,179.15 -264.9,241.95 -174.57,67.37 -294.01,128.62 -294.01,271.02 0,65.86 26.03,130.17 78.09,182.23 65.85,65.84 166.91,108.72 298.61,108.72 148.09,0 272.31,-57.56 356.53,-145.8 6.1,-6.39 5.34,-16.68 -1.4,-22.4 l -16.09,-13.61 c -6.35,-5.37 -15.68,-4.66 -21.38,1.39 -79.1,83.68 -190.13,132.95 -322.27,132.95 -202.13,0 -320.03,-117.9 -320.03,-238.88 0,-117.91 113.31,-171.5 266.44,-229.69 177.64,-67.38 292.48,-131.69 292.48,-283.29 0,-68.9 -27.56,-137.81 -82.69,-192.94 -67.38,-67.37 -168.44,-110.24 -303.2,-110.24 -174.46,0 -324.67,72.8 -417.52,189.49 -5.43,6.83 -3.88,16.89 3.17,22.03 z" /><path
         id="path36"
         style="fill:#ffffff;fill-opacity:1;fill-rule:nonzero;stroke:none"
         d="m 9314.45,1906.42 14.96,10.92 c 6.7,4.9 15.97,3.54 21.22,-2.89 90.27,-110.58 222.98,-172.08 384.31,-172.08 205.19,0 327.66,122.49 327.66,251.12 0,125.56 -102.56,179.15 -264.88,241.95 -174.57,67.37 -294,128.62 -294,271.02 0,65.86 26.02,130.17 78.08,182.23 65.85,65.84 166.92,108.72 298.6,108.72 148.1,0 272.3,-57.56 356.5,-145.8 6.1,-6.39 5.4,-16.68 -1.4,-22.4 l -16,-13.61 c -6.4,-5.37 -15.7,-4.66 -21.4,1.39 -79.1,83.68 -190.2,132.95 -322.29,132.95 -202.13,0 -320.03,-117.9 -320.03,-238.88 0,-117.91 113.31,-171.5 266.43,-229.69 177.64,-67.38 292.49,-131.69 292.49,-283.29 0,-68.9 -27.6,-137.81 -82.7,-192.94 -67.37,-67.37 -168.44,-110.24 -303.19,-110.24 -174.47,0 -324.67,72.8 -417.52,189.49 -5.43,6.83 -3.88,16.89 3.16,22.03" /><path
         id="path38"
         style="fill:none;stroke:#ffffff;stroke-width:12.49909973;stroke-linecap:butt;stroke-linejoin:miter;stroke-miterlimit:10;stroke-dasharray:none;stroke-opacity:1"
         d="m 9314.45,1906.42 14.96,10.92 c 6.7,4.9 15.97,3.54 21.22,-2.89 90.27,-110.58 222.98,-172.08 384.31,-172.08 205.19,0 327.66,122.49 327.66,251.12 0,125.56 -102.56,179.15 -264.88,241.95 -174.57,67.37 -294,128.62 -294,271.02 0,65.86 26.02,130.17 78.08,182.23 65.85,65.84 166.92,108.72 298.6,108.72 148.1,0 272.3,-57.56 356.5,-145.8 6.1,-6.39 5.4,-16.68 -1.4,-22.4 l -16,-13.61 c -6.4,-5.37 -15.7,-4.66 -21.4,1.39 -79.1,83.68 -190.2,132.95 -322.29,132.95 -202.13,0 -320.03,-117.9 -320.03,-238.88 0,-117.91 113.31,-171.5 266.43,-229.69 177.64,-67.38 292.49,-131.69 292.49,-283.29 0,-68.9 -27.6,-137.81 -82.7,-192.94 -67.37,-67.37 -168.44,-110.24 -303.19,-110.24 -174.47,0 -324.67,72.8 -417.52,189.49 -5.43,6.83 -3.88,16.89 3.16,22.03 z" /><path
         id="path40"
         style="fill:#ffffff;fill-opacity:1;fill-rule:nonzero;stroke:none"
         d="m 10846.9,1917.83 -282.4,400.26 c -4.2,5.9 -13.3,4.25 -15.2,-2.72 l -209.6,-795.67 c -2.1,-7.89 7.1,-13.88 13.5,-8.8 l 491.4,390.79 c 4.9,3.92 6,10.99 2.3,16.14" /><path
         id="path42"
         style="fill:#4dbae9;fill-opacity:1;fill-rule:nonzero;stroke:none"
         d="M 10199.1,1602.43 H 1445.34 c -16.37,0 -31.7,-8.05 -41,-21.54 l -389.89,-565.44 c -10.54,-15.29 -11.72,-35.001 -3.1,-51.419 8.64,-16.441 25.53,-26.64 44.1,-26.64 h 8992.05 c 22.5,0 42.3,15.16 48.1,36.89 l 151.6,565.459 c 4,15.07 0.9,30.82 -8.6,43.21 -9.5,12.38 -23.9,19.48 -39.5,19.48 z m 0,-23.67 c 17.2,0 29.7,-16.3 25.2,-32.89 l -151.5,-565.448 c -3.1,-11.43 -13.5,-19.371 -25.3,-19.371 H 1055.45 c -21.06,0 -33.46,23.621 -21.52,40.959 l 389.91,565.45 c 4.87,7.08 12.92,11.3 21.5,11.3 h 8753.76" /><path
         id="path44"
         style="fill:#ffffff;fill-opacity:1;fill-rule:nonzero;stroke:none"
         d="m 1614.07,1244.9 c 0,36.78 15.06,71.57 39.73,97.09 24.67,25.52 58.95,41.75 96.74,41.75 39.92,0 67.63,-16.32 85.76,-43.11 2.32,-3.44 1.32,-8.16 -2.04,-10.6 l -28.37,-20.57 c -3.37,-2.43 -8.14,-1.88 -10.68,1.41 -12.19,15.81 -26.76,25.82 -50.75,25.82 -19.54,0 -38.12,-8.95 -52.54,-23.86 -16.01,-16.57 -26.59,-40.1 -26.59,-65.94 0,-33.48 22.74,-56.01 54.78,-56.01 19.37,0 32.66,7.07 47.07,18.42 3.16,2.48 7.73,2.02 10.46,-0.93 l 21.64,-23.28 c 2.98,-3.19 2.85,-8.29 -0.44,-11.15 -20.34,-17.73 -44.92,-30.11 -79.06,-30.11 -61.18,0 -105.71,39.11 -105.71,101.07" /><path
         id="path46"
         style="fill:#ffffff;fill-opacity:1;fill-rule:nonzero;stroke:none"
         d="m 2043.19,1241.46 -42.32,128.01 c -1.68,5.07 2.1,10.29 7.44,10.29 h 37.95 c 3.53,0 6.63,-2.36 7.56,-5.77 l 20.63,-75.47 c 1.69,-6.18 9.68,-7.83 13.68,-2.83 l 64.91,81.13 c 1.49,1.87 3.74,2.94 6.13,2.94 h 38.91 c 6.67,0 10.3,-7.8 5.99,-12.9 l -110.64,-130.88 c -0.76,-0.89 -1.3,-1.94 -1.6,-3.07 l -20.76,-79.25 c -0.9,-3.45 -4.01,-5.85 -7.58,-5.85 h -33.16 c -5.13,0 -8.87,4.84 -7.59,9.8 l 20.6,79.42 c 0.38,1.46 0.33,3 -0.15,4.43" /><path
         id="path48"
         style="fill:#ffffff;fill-opacity:1;fill-rule:nonzero;stroke:none"
         d="m 2339.83,1244.9 c 0,36.78 15.07,71.57 39.73,97.09 24.68,25.52 58.95,41.75 96.75,41.75 39.91,0 67.62,-16.32 85.75,-43.11 2.32,-3.44 1.33,-8.16 -2.04,-10.6 l -28.37,-20.57 c -3.37,-2.43 -8.14,-1.88 -10.68,1.41 -12.18,15.81 -26.75,25.82 -50.75,25.82 -19.54,0 -38.12,-8.95 -52.54,-23.86 -16.01,-16.57 -26.59,-40.1 -26.59,-65.94 0,-33.48 22.75,-56.01 54.79,-56.01 19.36,0 32.65,7.07 47.06,18.42 3.16,2.48 7.73,2.02 10.47,-0.93 l 21.64,-23.28 c 2.97,-3.19 2.84,-8.29 -0.45,-11.15 -20.33,-17.73 -44.91,-30.11 -79.06,-30.11 -61.18,0 -105.71,39.11 -105.71,101.07" /><path
         id="path50"
         style="fill:#ffffff;fill-opacity:1;fill-rule:nonzero;stroke:none"
         d="m 2768.37,1379.76 h 33.13 c 5.13,0 8.88,-4.83 7.59,-9.8 L 2766.13,1204 c -1.29,-4.96 2.46,-9.8 7.59,-9.8 h 91.5 c 5.14,0 8.89,-4.86 7.58,-9.83 l -8.06,-30.71 c -0.89,-3.45 -4.01,-5.85 -7.57,-5.85 h -144.96 c -5.12,0 -8.87,4.84 -7.58,9.81 l 56.15,216.27 c 0.9,3.46 4.02,5.87 7.59,5.87" /><path
         id="path52"
         style="fill:#ffffff;fill-opacity:1;fill-rule:nonzero;stroke:none"
         d="m 3203.68,1213.75 c 16.34,16.9 25.95,41.75 25.95,63.95 0,34.46 -20.19,58.99 -57.03,58.99 -20.83,0 -38.75,-9.28 -51.9,-22.87 -16.33,-16.9 -25.95,-41.75 -25.95,-63.95 0,-34.46 20.19,-58.99 57.02,-58.99 20.83,0 38.77,9.28 51.91,22.87 z m 77.21,67.26 c 0,-35.45 -14.43,-70.91 -39.42,-96.75 -23.7,-24.53 -56.37,-40.43 -95.46,-40.43 -61.82,0 -102.51,44.41 -102.51,102.72 0,35.46 14.43,70.92 39.41,96.77 23.71,24.51 56.37,40.42 95.47,40.42 61.81,0 102.51,-44.4 102.51,-102.73" /><path
         id="path54"
         style="fill:#ffffff;fill-opacity:1;fill-rule:nonzero;stroke:none"
         d="m 3457.3,1244.9 c 0,36.78 15.06,71.57 39.73,97.09 24.67,25.52 58.94,41.75 96.74,41.75 39.91,0 67.62,-16.32 85.75,-43.11 2.33,-3.44 1.33,-8.16 -2.03,-10.6 l -28.38,-20.57 c -3.36,-2.43 -8.13,-1.88 -10.67,1.41 -12.18,15.81 -26.75,25.82 -50.75,25.82 -19.55,0 -38.12,-8.95 -52.54,-23.86 -16.02,-16.57 -26.59,-40.1 -26.59,-65.94 0,-33.48 22.75,-56.01 54.78,-56.01 19.36,0 32.65,7.07 47.07,18.42 3.15,2.48 7.72,2.02 10.46,-0.93 l 21.65,-23.28 c 2.97,-3.19 2.83,-8.29 -0.45,-11.15 -20.33,-17.73 -44.91,-30.11 -79.05,-30.11 -61.19,0 -105.72,39.11 -105.72,101.07" /><path
         id="path56"
         style="fill:#ffffff;fill-opacity:1;fill-rule:nonzero;stroke:none"
         d="m 3943.85,1267.11 c 19.21,0 35.54,4.96 45.16,14.9 5.76,5.96 9.29,13.92 9.29,23.53 0,7.95 -2.24,13.59 -7.05,18.56 -6.09,6.29 -16.98,9.61 -32.67,9.61 h -35.26 c -3.58,0 -6.69,-2.42 -7.59,-5.87 l -13.23,-50.93 c -1.29,-4.96 2.46,-9.8 7.59,-9.8 z m -23.91,-45.07 h -25.78 c -3.57,0 -6.69,-2.42 -7.59,-5.88 l -16.17,-62.47 c -0.9,-3.47 -4.03,-5.88 -7.59,-5.88 h -33.12 c -5.13,0 -8.88,4.84 -7.59,9.81 l 56.15,216.27 c 0.9,3.46 4.01,5.87 7.59,5.87 h 75.62 c 33.31,0 56.06,-7.62 71.12,-23.19 11.21,-11.59 17.29,-27.83 17.29,-46.72 0,-22.21 -7.36,-41.43 -20.51,-55.01 -7.7,-7.98 -20.51,-18.59 -43.18,-25.5 -4.52,-1.38 -6.67,-6.57 -4.62,-10.83 l 28.62,-59.46 c 2.5,-5.21 -1.29,-11.24 -7.06,-11.24 h -38.58 c -3.05,0 -5.82,1.77 -7.11,4.53 l -30.38,65.17 c -1.29,2.76 -4.06,4.53 -7.11,4.53" /><path
         id="path58"
         style="fill:#ffffff;fill-opacity:1;fill-rule:nonzero;stroke:none"
         d="m 4377.52,1213.75 c 16.33,16.9 25.93,41.75 25.93,63.95 0,34.46 -20.18,58.99 -57.02,58.99 -20.82,0 -38.76,-9.28 -51.9,-22.87 -16.33,-16.9 -25.94,-41.75 -25.94,-63.95 0,-34.46 20.18,-58.99 57.02,-58.99 20.82,0 38.76,9.28 51.91,22.87 z m 77.19,67.26 c 0,-35.45 -14.42,-70.91 -39.41,-96.75 -23.7,-24.53 -56.37,-40.43 -95.46,-40.43 -61.82,0 -102.51,44.41 -102.51,102.72 0,35.46 14.43,70.92 39.42,96.77 23.7,24.51 56.36,40.42 95.45,40.42 61.82,0 102.51,-44.4 102.51,-102.73" /><path
         id="path60"
         style="fill:#ffffff;fill-opacity:1;fill-rule:nonzero;stroke:none"
         d="m 4612.19,1192.24 25.77,22.52 c 3.16,2.77 7.87,2.43 10.84,-0.55 16.29,-16.33 34.47,-24.99 57.61,-24.99 19.88,0 34.28,9.62 34.28,24.19 0,11.27 -8.01,17.9 -38.12,30.49 -29.14,12.26 -55.09,28.5 -55.09,62.63 0,20.21 7.68,37.44 19.85,50.04 16.34,16.89 41.65,26.5 69.2,26.5 34.97,0 60.14,-11.24 78.62,-28.98 3.06,-2.94 2.96,-7.9 0.01,-10.96 l -23.38,-24.18 c -2.93,-3.04 -7.69,-3.1 -10.87,-0.33 -14.81,12.92 -28.86,19.73 -48.23,19.73 -20.82,0 -32.66,-11.94 -32.66,-23.54 0,-12.26 8.96,-17.56 39.39,-30.48 30.75,-12.93 53.82,-28.83 53.82,-62.63 0,-21.21 -8.01,-38.1 -20.18,-50.7 -16.99,-17.56 -42.28,-26.5 -68.87,-26.5 -40.12,0 -71.69,12.54 -92.92,36.83 -2.79,3.19 -2.26,8.12 0.93,10.91" /><path
         id="path62"
         style="fill:#ffffff;fill-opacity:1;fill-rule:nonzero;stroke:none"
         d="m 4960.01,1192.24 25.77,22.52 c 3.16,2.77 7.87,2.43 10.84,-0.55 16.29,-16.33 34.47,-24.99 57.62,-24.99 19.87,0 34.27,9.62 34.27,24.19 0,11.27 -8,17.9 -38.12,30.49 -29.14,12.26 -55.09,28.5 -55.09,62.63 0,20.21 7.69,37.44 19.85,50.04 16.34,16.89 41.65,26.5 69.2,26.5 34.97,0 60.14,-11.24 78.63,-28.98 3.05,-2.94 2.96,-7.9 0.01,-10.96 l -23.38,-24.18 c -2.94,-3.04 -7.7,-3.1 -10.88,-0.33 -14.81,12.92 -28.86,19.73 -48.22,19.73 -20.82,0 -32.67,-11.94 -32.67,-23.54 0,-12.26 8.96,-17.56 39.39,-30.48 30.76,-12.93 53.82,-28.83 53.82,-62.63 0,-21.21 -8.01,-38.1 -20.17,-50.7 -17,-17.56 -42.29,-26.5 -68.88,-26.5 -40.12,0 -71.69,12.54 -92.92,36.83 -2.78,3.19 -2.26,8.12 0.93,10.91" /><path
         id="path64"
         style="fill:#ffffff;fill-opacity:1;fill-rule:nonzero;stroke:none"
         d="m 5624.59,1379.76 h 153.65 c 2.36,0 4.1,-2.22 3.53,-4.52 l -4.25,-16.91 c -0.41,-1.63 -1.87,-2.76 -3.53,-2.76 h -130.51 c -1.66,0 -3.1,-1.11 -3.52,-2.72 l -19.57,-75.57 c -0.6,-2.3 1.14,-4.55 3.51,-4.55 h 112.3 c 2.39,0 4.13,-2.27 3.5,-4.57 l -4.44,-16.59 c -0.43,-1.59 -1.87,-2.7 -3.51,-2.7 h -115.82 c -1.66,0 -3.1,-1.11 -3.52,-2.71 l -24.85,-95.63 c -0.42,-1.6 -1.87,-2.72 -3.53,-2.72 h -17.78 c -2.38,0 -4.11,2.24 -3.52,4.55 l 58.33,224.69 c 0.42,1.6 1.87,2.71 3.53,2.71" /><path
         id="path66"
         style="fill:#ffffff;fill-opacity:1;fill-rule:nonzero;stroke:none"
         d="m 6101.89,1198.17 c 21.46,22.21 33.97,53.36 33.97,84.18 0,43.73 -28.52,77.21 -73.37,77.21 -27.23,0 -50.93,-11.94 -68.56,-30.49 -21.46,-21.88 -33.95,-53.02 -33.95,-84.17 0,-43.74 28.51,-77.21 73.37,-77.21 27.22,0 50.92,12.26 68.54,30.48 z m 60.55,85.17 c 0,-37.45 -15.69,-74.22 -40.68,-100.4 -23.39,-23.86 -54.79,-39.44 -90.02,-39.44 -57.98,0 -98.35,44.07 -98.35,100.73 0,37.45 15.69,73.9 41,100.08 23.07,23.86 54.46,39.43 89.7,39.43 57.99,0 98.35,-44.08 98.35,-100.4" /><path
         id="path68"
         style="fill:#ffffff;fill-opacity:1;fill-rule:nonzero;stroke:none"
         d="m 6447.46,1261.47 c 29.47,0 51.25,8.28 63.75,21.2 8.64,9.29 13.45,20.22 13.45,33.8 0,9.94 -3.21,18.9 -9.29,25.19 -8.64,8.94 -22.75,13.91 -43.89,13.91 h -57.41 c -1.66,0 -3.11,-1.11 -3.53,-2.7 l -22.76,-86.85 c -0.6,-2.3 1.13,-4.55 3.52,-4.55 z m -6.41,-23.53 h -57.73 c -1.65,0 -3.11,-1.12 -3.52,-2.73 l -21.98,-84.68 c -0.41,-1.6 -1.87,-2.72 -3.52,-2.72 h -17.78 c -2.38,0 -4.12,2.24 -3.52,4.55 l 58.34,224.69 c 0.41,1.6 1.86,2.71 3.51,2.71 h 77.92 c 28.18,0 49.33,-7.28 63.1,-21.2 9.62,-10.27 14.73,-24.19 14.73,-40.1 0,-20.21 -7.36,-37.11 -19.85,-50.37 -13.76,-14.23 -35.33,-22.68 -57.43,-26.97 -2.37,-0.47 -3.65,-3 -2.58,-5.16 l 41.37,-82.89 c 1.2,-2.42 -0.56,-5.26 -3.26,-5.26 h -21.01 c -1.38,0 -2.65,0.78 -3.25,2.02 l -43.54,88.11" /><path
         id="path70"
         style="fill:#ffffff;fill-opacity:1;fill-rule:nonzero;stroke:none"
         d="m 7011.48,1379.76 h 154.65 c 4.08,0 7.06,-3.86 6.04,-7.8 l -8.61,-32.93 c -0.72,-2.74 -3.19,-4.66 -6.03,-4.66 h -108.88 c -2.85,0 -5.33,-1.92 -6.04,-4.69 l -8.97,-34.92 c -1.01,-3.94 1.97,-7.78 6.04,-7.78 h 87.97 c 4.1,0 7.07,-3.88 6.03,-7.82 l -8.55,-32.28 c -0.72,-2.73 -3.2,-4.63 -6.02,-4.63 h -94.51 c -2.83,0 -5.32,-1.91 -6.03,-4.66 l -9.56,-36.58 c -1.03,-3.94 1.94,-7.8 6.03,-7.8 h 104.32 c 4.08,0 7.06,-3.86 6.03,-7.81 l -8.61,-32.93 c -0.71,-2.75 -3.19,-4.66 -6.02,-4.66 h -156.27 c -4.07,0 -7.06,3.85 -6.04,7.8 l 57,219.49 c 0.71,2.75 3.19,4.66 6.03,4.66" /><path
         id="path72"
         style="fill:#ffffff;fill-opacity:1;fill-rule:nonzero;stroke:none"
         d="m 7350.01,1379.76 h 40.12 c 3.22,0 5.9,-2.44 6.21,-5.63 l 13.07,-137.52 c 0.57,-5.96 8.39,-7.78 11.52,-2.68 l 87.74,142.86 c 1.13,1.85 3.14,2.97 5.3,2.97 h 40.52 c 4.93,0 7.91,-5.45 5.24,-9.6 l -142.22,-221.15 c -1.16,-1.78 -3.13,-2.86 -5.25,-2.86 h -34.66 c -3.15,0 -5.8,2.34 -6.19,5.46 l -27.59,221.15 c -0.46,3.72 2.44,7 6.19,7" /><path
         id="path74"
         style="fill:#ffffff;fill-opacity:1;fill-rule:nonzero;stroke:none"
         d="m 7751,1379.76 h 154.66 c 4.08,0 7.06,-3.86 6.03,-7.8 l -8.61,-32.93 c -0.71,-2.74 -3.19,-4.66 -6.02,-4.66 h -108.89 c -2.84,0 -5.32,-1.92 -6.03,-4.69 l -8.97,-34.92 c -1.01,-3.94 1.96,-7.78 6.04,-7.78 h 87.98 c 4.08,0 7.07,-3.88 6.01,-7.82 l -8.54,-32.28 c -0.73,-2.73 -3.2,-4.63 -6.02,-4.63 h -94.51 c -2.84,0 -5.31,-1.91 -6.04,-4.66 l -9.56,-36.58 c -1.02,-3.94 1.96,-7.8 6.04,-7.8 h 104.31 c 4.09,0 7.06,-3.86 6.04,-7.81 l -8.6,-32.93 c -0.72,-2.75 -3.2,-4.66 -6.03,-4.66 h -156.27 c -4.08,0 -7.06,3.85 -6.03,7.8 l 56.99,219.49 c 0.71,2.75 3.18,4.66 6.02,4.66" /><path
         id="path76"
         style="fill:#ffffff;fill-opacity:1;fill-rule:nonzero;stroke:none"
         d="m 8170.57,1267.11 c 19.22,0 35.55,4.96 45.17,14.9 5.76,5.96 9.29,13.92 9.29,23.53 0,7.95 -2.24,13.59 -7.05,18.56 -6.09,6.29 -16.98,9.61 -32.67,9.61 h -36.51 c -2.84,0 -5.32,-1.93 -6.03,-4.67 l -14.06,-54.14 c -1.03,-3.95 1.95,-7.79 6.02,-7.79 z m -22.88,-45.07 h -28.04 c -2.85,0 -5.33,-1.93 -6.04,-4.67 l -16.8,-64.89 c -0.71,-2.75 -3.19,-4.67 -6.03,-4.67 h -36.45 c -4.08,0 -7.06,3.85 -6.03,7.8 l 56.99,219.49 c 0.71,2.75 3.19,4.66 6.03,4.66 h 76.86 c 33.32,0 56.07,-7.62 71.12,-23.19 11.22,-11.59 17.3,-27.83 17.3,-46.72 0,-22.21 -7.36,-41.43 -20.51,-55.01 -7.86,-8.14 -21.03,-19.02 -44.58,-25.91 -3.75,-1.1 -5.73,-5.19 -4.04,-8.71 l 30.55,-63.48 c 1.99,-4.14 -1.02,-8.93 -5.62,-8.93 h -42.16 c -2.42,0 -4.63,1.4 -5.65,3.6 l -31.24,67.02 c -1.03,2.2 -3.24,3.61 -5.66,3.61" /><path
         id="path78"
         style="fill:#ffffff;fill-opacity:1;fill-rule:nonzero;stroke:none"
         d="m 8491.86,1241.01 -43.17,130.57 c -1.34,4.03 1.67,8.18 5.91,8.18 h 41.4 c 2.81,0 5.28,-1.87 6.01,-4.58 l 21.79,-79.71 c 1.34,-4.91 7.69,-6.22 10.88,-2.24 l 67.37,84.2 c 1.18,1.47 2.97,2.33 4.86,2.33 h 43.16 c 5.3,0 8.18,-6.2 4.75,-10.25 l -113.1,-133.81 c -0.61,-0.7 -1.04,-1.54 -1.27,-2.44 l -21.18,-80.8 c -0.71,-2.74 -3.19,-4.65 -6.02,-4.65 h -36.48 c -4.07,0 -7.05,3.85 -6.03,7.79 l 21.24,81.89 c 0.29,1.16 0.25,2.38 -0.12,3.52" /><path
         id="path80"
         style="fill:#ffffff;fill-opacity:1;fill-rule:nonzero;stroke:none"
         d="m 8948.54,1213.75 c 16.33,16.9 25.94,41.75 25.94,63.95 0,34.46 -20.19,58.99 -57.02,58.99 -20.82,0 -38.76,-9.28 -51.91,-22.87 -16.32,-16.9 -25.93,-41.75 -25.93,-63.95 0,-34.46 20.17,-58.99 57.02,-58.99 20.82,0 38.76,9.28 51.9,22.87 z m 77.2,67.26 c 0,-35.45 -14.42,-70.91 -39.41,-96.75 -23.71,-24.53 -56.37,-40.43 -95.46,-40.43 -61.83,0 -102.51,44.41 -102.51,102.72 0,35.46 14.41,70.92 39.41,96.77 23.7,24.51 56.37,40.42 95.46,40.42 61.82,0 102.51,-44.4 102.51,-102.73" /><path
         id="path82"
         style="fill:#ffffff;fill-opacity:1;fill-rule:nonzero;stroke:none"
         d="m 9249.59,1379.76 h 36.61 c 2.47,0 4.71,-1.44 5.7,-3.7 l 56.48,-127.44 c 2.39,-5.4 10.23,-4.76 11.72,0.95 l 32.74,125.53 c 0.71,2.75 3.19,4.66 6.02,4.66 h 35.83 c 4.08,0 7.06,-3.85 6.03,-7.79 l -56.99,-219.49 c -0.71,-2.76 -3.2,-4.67 -6.03,-4.67 h -33.1 c -2.46,0 -4.69,1.44 -5.7,3.69 l -59.01,132.15 c -2.4,5.38 -10.24,4.72 -11.72,-0.98 l -33.73,-130.19 c -0.71,-2.75 -3.19,-4.67 -6.02,-4.67 h -35.82 c -4.08,0 -7.06,3.85 -6.03,7.8 l 56.99,219.49 c 0.71,2.75 3.2,4.66 6.03,4.66" /><path
         id="path84"
         style="fill:#ffffff;fill-opacity:1;fill-rule:nonzero;stroke:none"
         d="m 9648.66,1379.76 h 154.65 c 4.08,0 7.06,-3.86 6.03,-7.8 l -8.6,-32.93 c -0.72,-2.74 -3.19,-4.66 -6.04,-4.66 h -108.87 c -2.85,0 -5.33,-1.92 -6.04,-4.69 l -8.97,-34.92 c -1.01,-3.94 1.96,-7.78 6.03,-7.78 h 87.98 c 4.09,0 7.07,-3.88 6.03,-7.82 l -8.55,-32.28 c -0.72,-2.73 -3.2,-4.63 -6.02,-4.63 h -94.52 c -2.83,0 -5.31,-1.91 -6.02,-4.66 l -9.56,-36.58 c -1.04,-3.94 1.94,-7.8 6.02,-7.8 h 104.33 c 4.08,0 7.06,-3.86 6.03,-7.81 l -8.61,-32.93 c -0.71,-2.75 -3.19,-4.66 -6.02,-4.66 h -156.27 c -4.08,0 -7.06,3.85 -6.04,7.8 l 56.99,219.49 c 0.72,2.75 3.2,4.66 6.04,4.66" /></g></g></svg>