<?xml version="1.0" encoding="UTF-8" standalone="no"?>
<!-- Created with Inkscape (http://www.inkscape.org/) -->

<svg
   xmlns:dc="http://purl.org/dc/elements/1.1/"
   xmlns:cc="http://creativecommons.org/ns#"
   xmlns:rdf="http://www.w3.org/1999/02/22-rdf-syntax-ns#"
   xmlns:svg="http://www.w3.org/2000/svg"
   xmlns="http://www.w3.org/2000/svg"
   xmlns:sodipodi="http://sodipodi.sourceforge.net/DTD/sodipodi-0.dtd"
   xmlns:inkscape="http://www.inkscape.org/namespaces/inkscape"
   width="143.96402mm"
   height="46.376945mm"
   viewBox="0 0 143.96402 46.376945"
   version="1.1"
   id="svg1268"
   inkscape:version="0.92.4 (5da689c313, 2019-01-14)"
   sodipodi:docname="custom-electronics-logo.svg">
  <defs
     id="defs1262" />
  <sodipodi:namedview
     id="base"
     pagecolor="#ffffff"
     bordercolor="#666666"
     borderopacity="1.0"
     inkscape:pageopacity="0.0"
     inkscape:pageshadow="2"
     inkscape:zoom="0.35"
     inkscape:cx="-152.22781"
     inkscape:cy="-66.644148"
     inkscape:document-units="mm"
     inkscape:current-layer="layer1"
     showgrid="false"
     fit-margin-top="0"
     fit-margin-left="0"
     fit-margin-right="0"
     fit-margin-bottom="0"
     inkscape:window-width="1920"
     inkscape:window-height="986"
     inkscape:window-x="-11"
     inkscape:window-y="-11"
     inkscape:window-maximized="1" />
  <metadata
     id="metadata1265">
    <rdf:RDF>
      <cc:Work
         rdf:about="">
        <dc:format>image/svg+xml</dc:format>
        <dc:type
           rdf:resource="http://purl.org/dc/dcmitype/StillImage" />
        <dc:title></dc:title>
      </cc:Work>
    </rdf:RDF>
  </metadata>
  <g
     inkscape:label="Layer 1"
     inkscape:groupmode="layer"
     id="layer1"
     transform="translate(0.92246449,-84.823457)">
    <g
       id="g12984"
       transform="matrix(0.31528205,1.766427,1.766427,-0.31528205,1873.7957,-1084.8386)">
      <path
         d="m 491.35985,-1101.8275 c -0.477,-2.68 -3.008,-4.481 -5.649,-4.012 -1.699,0.301 -3.125,1.512 -3.711,3.16 -0.109,0.313 0.051,0.664 0.36,0.777 0.308,0.118 0.652,-0.043 0.761,-0.359 0.446,-1.246 1.52,-2.16 2.805,-2.387 1.988,-0.351 3.899,1.008 4.258,3.032 0.359,2.023 -0.969,3.953 -2.961,4.308 -1.297,0.231 -2.629,-0.273 -3.473,-1.312 -0.211,-0.258 -0.589,-0.293 -0.843,-0.082 -0.25,0.211 -0.286,0.593 -0.075,0.855 1.118,1.371 2.883,2.035 4.606,1.731 2.637,-0.465 4.394,-3.028 3.922,-5.711"
         style="fill:#d40000;fill-opacity:1;fill-rule:nonzero;stroke:none"
         id="path9591"
         inkscape:connector-curvature="0" />
      <path
         d="m 487.19985,-1101.0895 c -0.059,-0.332 -0.371,-0.551 -0.696,-0.492 l -4.777,0.844 c -0.324,0.058 -0.539,0.371 -0.48,0.703 0.054,0.328 0.367,0.55 0.691,0.492 l 4.777,-0.844 c 0.324,-0.059 0.539,-0.375 0.485,-0.703"
         style="fill:#d40000;fill-opacity:1;fill-rule:nonzero;stroke:none"
         id="path9593"
         inkscape:connector-curvature="0" />
      <g
         id="g12963">
        <path
           inkscape:connector-curvature="0"
           id="path9595"
           style="fill:#000000;fill-opacity:1;fill-rule:nonzero;stroke:none"
           d="m 464.39885,-1132.9645 c -1.367,-0.84 -2.188,-2.016 -2.453,-3.523 -0.223,-1.262 0.043,-2.403 0.804,-3.426 0.758,-1.02 1.77,-1.641 3.028,-1.864 1.371,-0.246 2.57,-0.01 3.597,0.707 1.028,0.715 1.664,1.75 1.903,3.106 0.133,0.746 0.109,1.434 -0.074,2.07 -0.184,0.633 -0.536,1.27 -1.051,1.914 l 3.242,-0.574 c 0.406,-1.215 0.488,-2.5 0.246,-3.855 -0.352,-2.008 -1.32,-3.59 -2.902,-4.75 -1.582,-1.161 -3.352,-1.563 -5.305,-1.219 -2.031,0.359 -3.598,1.367 -4.699,3.019 -1.106,1.653 -1.473,3.512 -1.11,5.579 0.114,0.648 0.293,1.253 0.528,1.824 0.238,0.57 0.562,1.093 0.976,1.57 z" />
        <path
           inkscape:connector-curvature="0"
           id="path9597"
           style="fill:#000000;fill-opacity:1;fill-rule:nonzero;stroke:none"
           d="m 461.42985,-1127.8865 7.305,-1.289 c 1.238,-0.223 2.25,-0.172 3.035,0.145 0.781,0.312 1.277,1.062 1.488,2.246 0.203,1.168 -0.008,2.035 -0.644,2.613 -0.633,0.574 -1.563,0.969 -2.785,1.184 l -7.301,1.292 0.453,2.582 7.586,-1.343 c 1.879,-0.332 3.277,-1.063 4.195,-2.188 0.914,-1.129 1.203,-2.648 0.863,-4.558 -0.336,-1.911 -1.125,-3.243 -2.363,-3.989 -1.234,-0.746 -2.805,-0.949 -4.703,-0.613 l -7.586,1.34 z" />
        <path
           inkscape:connector-curvature="0"
           id="path9599"
           style="fill:#000000;fill-opacity:1;fill-rule:nonzero;stroke:none"
           d="m 467.35985,-1111.9525 c -0.363,-0.094 -0.684,-0.278 -0.953,-0.559 -0.274,-0.273 -0.442,-0.594 -0.508,-0.957 -0.063,-0.363 0.004,-0.711 0.195,-1.039 0.195,-0.328 0.481,-0.527 0.856,-0.594 0.507,-0.09 0.929,0.055 1.269,0.442 0.34,0.382 0.852,1.078 1.535,2.089 0.684,1.016 1.348,1.743 2,2.188 0.653,0.449 1.457,0.586 2.414,0.418 1.239,-0.223 2.2,-0.859 2.875,-1.914 0.676,-1.055 0.903,-2.215 0.68,-3.477 -0.18,-1.011 -0.609,-1.898 -1.289,-2.668 -0.676,-0.765 -1.508,-1.25 -2.492,-1.449 l -0.598,2.383 c 0.617,0.207 1.102,0.469 1.449,0.793 0.348,0.32 0.571,0.769 0.672,1.344 0.102,0.57 0.016,1.086 -0.265,1.539 -0.278,0.453 -0.688,0.726 -1.235,0.824 -0.281,0.051 -0.527,0.043 -0.742,-0.016 -0.215,-0.062 -0.504,-0.285 -0.863,-0.675 l -1.77,-2.286 c -0.625,-0.797 -1.207,-1.367 -1.742,-1.707 -0.535,-0.336 -1.215,-0.433 -2.043,-0.289 -1.07,0.192 -1.91,0.739 -2.516,1.645 -0.605,0.906 -0.812,1.902 -0.621,2.992 0.145,0.801 0.473,1.488 0.993,2.055 0.519,0.57 1.175,0.972 1.972,1.203 z" />
        <path
           inkscape:connector-curvature="0"
           id="path9601"
           style="fill:#000000;fill-opacity:1;fill-rule:nonzero;stroke:none"
           d="m 479.10185,-1104.9175 -0.457,-2.578 -11.117,1.965 -0.504,-2.844 -2.367,0.418 1.457,8.246 2.371,-0.418 -0.5,-2.824 z" />
        <path
           inkscape:connector-curvature="0"
           id="path9603"
           style="fill:#000000;fill-opacity:1;fill-rule:nonzero;stroke:none"
           d="m 473.57485,-1097.8905 c 1.238,-0.219 2.394,0.035 3.461,0.766 1.07,0.726 1.718,1.73 1.945,3.011 0.223,1.262 -0.039,2.418 -0.781,3.477 -0.743,1.055 -1.746,1.699 -3.004,1.922 -1.278,0.227 -2.442,-0.027 -3.492,-0.758 -1.051,-0.73 -1.688,-1.734 -1.915,-3.015 -0.222,-1.262 0.036,-2.422 0.778,-3.477 0.746,-1.059 1.746,-1.703 3.008,-1.926 m 2.078,11.754 c 1.992,-0.351 3.535,-1.34 4.636,-2.965 1.098,-1.621 1.469,-3.437 1.118,-5.441 -0.356,-2.008 -1.328,-3.582 -2.918,-4.731 -1.59,-1.148 -3.379,-1.547 -5.371,-1.195 -1.997,0.355 -3.539,1.344 -4.641,2.965 -1.098,1.625 -1.469,3.437 -1.113,5.445 0.351,2.004 1.328,3.582 2.914,4.731 1.59,1.148 3.379,1.543 5.375,1.191" />
        <path
           inkscape:connector-curvature="0"
           id="path9605"
           style="fill:#000000;fill-opacity:1;fill-rule:nonzero;stroke:none"
           d="m 471.42185,-1080.7225 c -0.551,0.531 -0.957,1.149 -1.222,1.859 -0.262,0.708 -0.332,1.415 -0.207,2.122 0.148,0.839 0.484,1.55 1.004,2.125 0.523,0.578 1.199,1.019 2.035,1.328 -0.645,0.547 -1.114,1.23 -1.407,2.051 -0.296,0.82 -0.367,1.652 -0.218,2.492 0.289,1.625 1.019,2.675 2.199,3.156 1.176,0.484 2.613,0.574 4.316,0.273 l 7.938,-1.406 -0.453,-2.578 -7.516,1.328 c -1.172,0.207 -2.141,0.219 -2.906,0.027 -0.766,-0.191 -1.238,-0.8 -1.422,-1.832 -0.211,-1.203 0.109,-2.082 0.969,-2.625 0.859,-0.546 1.988,-0.945 3.386,-1.191 l 6.524,-1.156 -0.457,-2.578 -7.031,1.246 c -1.305,0.23 -2.387,0.273 -3.239,0.129 -0.855,-0.145 -1.375,-0.754 -1.566,-1.825 -0.215,-1.222 0.101,-2.105 0.949,-2.648 0.852,-0.547 1.984,-0.945 3.402,-1.195 l 6.52,-1.153 -0.453,-2.578 -13.274,2.348 0.457,2.578 z" />
        <path
           inkscape:connector-curvature="0"
           id="path9607"
           style="fill:#000000;fill-opacity:1;fill-rule:nonzero;stroke:none"
           d="m 474.00785,-1145.8165 0.903,5.082 1.062,-0.187 -0.691,-3.902 2.601,-0.461 0.672,3.789 1.059,-0.188 -0.668,-3.789 3.5,-0.621 0.691,3.902 1.063,-0.187 -0.903,-5.082 z" />
        <path
           inkscape:connector-curvature="0"
           id="path9609"
           style="fill:#000000;fill-opacity:1;fill-rule:nonzero;stroke:none"
           d="m 483.67985,-1139.1205 0.512,2.871 1.058,-0.188 -0.718,-4.05 -9.289,1.644 0.211,1.176 z" />
        <path
           inkscape:connector-curvature="0"
           id="path9611"
           style="fill:#000000;fill-opacity:1;fill-rule:nonzero;stroke:none"
           d="m 476.17585,-1133.5815 0.899,5.082 1.062,-0.192 -0.691,-3.898 2.601,-0.461 0.672,3.785 1.059,-0.187 -0.668,-3.785 3.504,-0.618 0.687,3.899 1.063,-0.188 -0.899,-5.078 z" />
        <path
           inkscape:connector-curvature="0"
           id="path9613"
           style="fill:#000000;fill-opacity:1;fill-rule:nonzero;stroke:none"
           d="m 480.43785,-1119.8515 c -0.356,-0.285 -0.652,-0.629 -0.883,-1.039 -0.234,-0.414 -0.394,-0.844 -0.473,-1.297 -0.183,-1.043 0.032,-1.992 0.645,-2.847 0.617,-0.856 1.445,-1.375 2.488,-1.559 1.024,-0.184 1.973,0.02 2.844,0.602 0.867,0.582 1.395,1.398 1.582,2.445 0.168,0.949 -0.004,1.848 -0.52,2.687 l 1.372,-0.242 c 0.144,-0.386 0.234,-0.816 0.269,-1.281 0.035,-0.469 0.016,-0.906 -0.055,-1.316 -0.242,-1.364 -0.91,-2.442 -2.007,-3.239 -1.102,-0.797 -2.321,-1.078 -3.657,-0.843 -1.371,0.246 -2.445,0.937 -3.214,2.085 -0.77,1.145 -1.036,2.415 -0.786,3.809 0.075,0.438 0.2,0.844 0.375,1.223 0.172,0.375 0.395,0.726 0.672,1.05 z" />
        <path
           inkscape:connector-curvature="0"
           id="path9615"
           style="fill:#000000;fill-opacity:1;fill-rule:nonzero;stroke:none"
           d="m 488.72285,-1116.7925 -0.207,-1.184 -8.227,1.457 -0.398,-2.242 -1.062,0.188 1.003,5.668 1.063,-0.188 -0.398,-2.246 z" />
        <path
           inkscape:connector-curvature="0"
           id="path9617"
           style="fill:#000000;fill-opacity:1;fill-rule:nonzero;stroke:none"
           d="m 484.67585,-1111.1405 0.063,0.375 c 0.132,0.746 0.125,1.371 -0.028,1.875 -0.152,0.508 -0.558,0.817 -1.222,0.934 -0.653,0.117 -1.141,-0.043 -1.45,-0.489 -0.308,-0.437 -0.531,-1.035 -0.664,-1.789 l -0.054,-0.312 z m 5.727,3.836 -0.254,-1.426 -4.422,-2.093 -0.09,-0.489 3.934,-0.695 -0.207,-1.176 -9.289,1.645 0.25,1.425 c 0.109,0.602 0.218,1.079 0.324,1.426 0.109,0.348 0.301,0.684 0.574,1.016 0.274,0.332 0.633,0.57 1.074,0.723 0.442,0.152 0.887,0.187 1.336,0.105 0.684,-0.121 1.231,-0.434 1.637,-0.934 0.41,-0.507 0.598,-1.101 0.559,-1.796 z" />
        <path
           inkscape:connector-curvature="0"
           id="path9619"
           style="fill:#000000;fill-opacity:1;fill-rule:nonzero;stroke:none"
           d="m 482.74685,-1093.7735 8.57,5.805 -6.867,1.215 0.207,1.18 9.695,-1.715 -8.574,-5.805 6.926,-1.223 -0.211,-1.179 z" />
        <path
           inkscape:connector-curvature="0"
           id="path9621"
           style="fill:#000000;fill-opacity:1;fill-rule:nonzero;stroke:none"
           d="m 484.92585,-1084.1245 0.207,1.179 9.289,-1.644 -0.207,-1.18 z" />
        <path
           inkscape:connector-curvature="0"
           id="path9623"
           style="fill:#000000;fill-opacity:1;fill-rule:nonzero;stroke:none"
           d="m 488.47285,-1074.4335 c -0.355,-0.281 -0.648,-0.629 -0.883,-1.039 -0.234,-0.414 -0.39,-0.844 -0.472,-1.297 -0.184,-1.043 0.031,-1.992 0.644,-2.847 0.617,-0.856 1.445,-1.375 2.488,-1.559 1.024,-0.18 1.973,0.02 2.844,0.602 0.871,0.586 1.399,1.398 1.582,2.445 0.168,0.949 -0.004,1.848 -0.519,2.687 l 1.371,-0.242 c 0.144,-0.387 0.234,-0.812 0.269,-1.281 0.035,-0.465 0.02,-0.906 -0.054,-1.316 -0.243,-1.364 -0.911,-2.442 -2.008,-3.243 -1.098,-0.793 -2.317,-1.074 -3.656,-0.836 -1.372,0.243 -2.442,0.934 -3.215,2.082 -0.77,1.145 -1.032,2.414 -0.785,3.809 0.078,0.434 0.199,0.844 0.375,1.223 0.171,0.375 0.398,0.73 0.675,1.05 z" />
        <path
           inkscape:connector-curvature="0"
           id="path9625"
           style="fill:#000000;fill-opacity:1;fill-rule:nonzero;stroke:none"
           d="m 489.51585,-1068.4645 c -0.328,-0.125 -0.582,-0.293 -0.769,-0.504 -0.188,-0.215 -0.313,-0.5 -0.376,-0.859 -0.07,-0.407 -0.015,-0.797 0.176,-1.16 0.188,-0.368 0.477,-0.583 0.864,-0.653 0.32,-0.055 0.609,0.024 0.867,0.242 0.258,0.215 0.492,0.496 0.695,0.84 l 0.379,0.629 c 0.422,0.703 0.879,1.223 1.375,1.551 0.492,0.332 1.105,0.43 1.836,0.301 0.84,-0.149 1.476,-0.559 1.922,-1.239 0.441,-0.675 0.59,-1.445 0.437,-2.297 -0.133,-0.757 -0.496,-1.367 -1.086,-1.824 -0.589,-0.457 -1.265,-0.668 -2.031,-0.636 l -0.035,1.234 c 0.508,-0.09 0.957,0.012 1.351,0.297 0.399,0.289 0.641,0.695 0.735,1.222 0.09,0.504 -0.016,0.95 -0.309,1.34 -0.297,0.395 -0.691,0.637 -1.195,0.727 -0.336,0.058 -0.668,0 -0.996,-0.168 -0.324,-0.172 -0.676,-0.555 -1.051,-1.152 l -0.387,-0.606 c -0.386,-0.594 -0.789,-1.043 -1.203,-1.344 -0.418,-0.3 -0.926,-0.398 -1.515,-0.297 -0.723,0.129 -1.254,0.508 -1.594,1.137 -0.344,0.629 -0.449,1.32 -0.317,2.074 0.094,0.528 0.297,0.977 0.61,1.352 0.312,0.375 0.722,0.652 1.226,0.832 z" />
      </g>
    </g>
  </g>
</svg>
